<?xml version="1.0" encoding="iso-8859-1"?>
<!-- Generator: Adobe Illustrator 18.0.0, SVG Export Plug-In . SVG Version: 6.00 Build 0)  -->
<!DOCTYPE svg PUBLIC "-//W3C//DTD SVG 1.1//EN" "http://www.w3.org/Graphics/SVG/1.1/DTD/svg11.dtd">
<svg version="1.1" id="Capa_1" xmlns="http://www.w3.org/2000/svg" xmlns:xlink="http://www.w3.org/1999/xlink" x="0px" y="0px"
	 viewBox="0 0 227.184 227.184" style="enable-background:new 0 0 227.184 227.184;" xml:space="preserve">
<g>
	<path d="M226.717,42.806c0.836-2.203,0.536-4.677-0.803-6.616c-1.339-1.939-3.545-3.098-5.901-3.098h-18.277
		c0-18.087-14.663-32.75-32.75-32.75c-7.883,0-15.114,2.787-20.766,7.427c4.89,1.517,9.139,4.822,11.762,9.368
		c16.779,29.073,16.779,37.85,16.779,41.597c0,19.083-15.525,34.608-34.608,34.608c-6.309,0-12.223-1.705-17.321-4.666
		l-70.285,31.528c-21.206,9.513-34.907,30.495-35.133,53.7c-5.135-9.869-7.595-26.005,2.91-51.174
		c1.596-3.822-0.21-8.215-4.032-9.81c-3.822-1.597-8.215,0.209-9.81,4.032c-13.57,32.511-8.358,53.497-1.598,65.377
		c4.393,7.719,9.893,12.643,13.948,15.519c4.614,16.694,19.929,28.993,38.07,28.993c1.349,0,55,0,55,0c5.522,0,10-4.477,10-10
		c0-5.522-4.478-10-10-10h-20.67c5.18-9.125,5.251-15.668,5.288-20.702c0.011-1.438,0.839-16.495-13.133-26.927
		c-3.254-2.431-4.032-7.137-1.522-10.497c2.479-3.316,7.179-4.001,10.497-1.522c10.412,7.773,17.167,19.567,18.744,32.327
		l25.796-11.707v49.028c0,5.523,4.478,10,10,10h20.083c5.523,0,10-4.477,10-10c0-5.522-4.477-10-10-10h-10.083v-49.379
		c11.497-8.723,18.5-22.436,18.5-37.256v-3.365V90.555c0-8.443,6.845-15.287,15.287-15.287h8.566
		c7.914,0,15.004-4.894,17.811-12.293L226.717,42.806z M179.153,35.842c-2.348,0-4.25-1.902-4.25-4.25s1.902-4.25,4.25-4.25
		c2.348,0,4.25,1.902,4.25,4.25S181.5,35.842,179.153,35.842z"/>
	<path d="M142.153,78.342c10.83,0,19.608-8.779,19.608-19.608c0-7.322-8.965-24.039-14.77-34.099
		c-0.998-1.729-2.838-2.797-4.834-2.799c-1.996,0-3.841,1.064-4.838,2.793c-5.807,10.06-14.774,26.781-14.774,34.104
		C122.544,69.562,131.324,78.342,142.153,78.342z"/>
</g>
<g>
</g>
<g>
</g>
<g>
</g>
<g>
</g>
<g>
</g>
<g>
</g>
<g>
</g>
<g>
</g>
<g>
</g>
<g>
</g>
<g>
</g>
<g>
</g>
<g>
</g>
<g>
</g>
<g>
</g>
</svg>
